<svg xmlns="http://www.w3.org/2000/svg" version="1.1" xmlns:xlink="http://www.w3.org/1999/xlink" xmlns:svgjs="http://svgjs.dev/svgjs" width="1000" height="1000" viewBox="0 0 1000 1000"><rect width="1000" height="1000" fill="#000000"></rect><g transform="matrix(0.7,0,0,0.7,150.0000000000001,106.25)"><svg viewBox="0 0 320 360" data-background-color="#ffffff" preserveAspectRatio="xMidYMid meet" height="1125" width="1000" xmlns="http://www.w3.org/2000/svg" xmlns:xlink="http://www.w3.org/1999/xlink"><defs></defs><g id="tight-bounds" transform="matrix(1,0,0,1,0,0)"><svg viewBox="0 0 320 360" height="360" width="320"><g><svg></svg></g><g><svg viewBox="0 0 320 360" height="360" width="320"><g><path d="M20.961 227.22l3.726 4.658-1.863-6.056c-0.466-2.795-3.726 0.466-1.863 1.398M25.153 224.425c1.397 2.329 2.795 4.658 2.795 6.987 0 3.261 2.795 4.658 5.123 5.589-3.261-3.726-5.124-13.974-7.918-12.576M204.017 26.929c7.918 0 15.371-0.932 23.756 0.931 20.495 5.124 37.729 15.371 49.374 29.811l32.606 52.169c1.397 13.042 4.192 27.482 3.726 43.319 3.261 0 2.795-4.658 6.521-5.59-3.726 9.316-5.59 20.961-6.521 34.469-2.329-7.453 0-18.632 0.466-24.687-3.261 5.124-5.124 1.397-5.124-0.932 0.466-3.726-1.397-3.261-2.795-4.658-5.124-4.658-8.384-9.782-12.11-17.7 2.329-6.055 2.795-14.905-4.658-19.563-2.329-1.397-5.124-3.726-6.521-7.453-1.863-5.124-5.124-11.179-4.193-19.097 0.466-2.329-6.987 5.124-11.179 1.863-18.166-12.576-36.332-27.016-58.224-39.127-11.645 0-20.029-4.192-24.221-9.316-3.726-4.658-0.932-10.713 4.658-11.179 3.261 0 6.987-0.932 9.782 0.932 0.466-1.863 2.329-4.192 4.657-4.192M157.904 16.215l0.932 0.466c4.658 0.932 6.987 7.453 12.11 5.124 0 3.261 0.466 6.521-0.466 8.85-1.397 3.726-5.59 3.726-8.85 3.726-31.208-1.863-49.374 11.179-68.471 22.358-5.124 3.261-10.713 5.59-14.906 9.782-20.029 18.632-41.921 35.866-47.045 70.335l-4.192 38.195c-0.466 4.192-5.124 8.384-4.192 13.508l3.26 22.824c-3.261-3.261-5.124 0.932-4.192 2.795 0.466 1.397 2.329 6.055 5.124 1.863 3.726 6.987 7.453 20.495 12.576 26.55 15.837 18.632 36.332 35.4 53.101 52.169 4.192-0.932 7.453-0.932 8.384-3.727 1.397 2.795-1.397 5.59-3.726 6.056 7.453 4.658 15.837 8.85 27.016 9.781 14.44 0.932 27.948 3.261 40.524 6.522 6.521-1.863 13.042-2.795 20.029-3.261 2.329 0 3.726-3.726 6.521-4.658l0.466-4.658c2.795 4.192 2.329-1.397 0.466-4.192 3.261 2.795 4.192 5.124 5.589 6.987 0-1.397 3.726-6.521 3.727-0.466l0.931-6.055c1.397-0.932 1.863 5.124 3.261 0.931 1.397-4.192 4.192-0.932 6.987-2.329-0.932 1.863-0.466 5.59 2.794 3.261l3.727-3.261c2.329 5.59 6.055 3.261 7.918 2.329 20.495-13.042 40.99-28.413 60.553-43.784l-0.466 6.055 2.329-7.453c2.329 2.329 4.192 0.466 5.124-0.931 2.795-4.658 6.521-9.316 12.577-13.508-7.453 20.029-16.303 35.866-27.482 48.908l-4.658 5.59c0 3.261-0.932 7.453-4.658 7.918-1.863 0.466-5.59-0.932-8.384 1.863-1.397 1.863 3.261 5.59-0.466 2.795-3.261-2.329-6.521 0-10.248 0.932-2.795 0.932 1.863 3.726 2.795 5.589 0.932 1.863 1.863 3.726 1.398 6.056l-5.124-5.59c-6.055 3.261-9.782 9.316-14.906 13.974-2.329 1.863-1.397 5.124-1.397 7.918-3.261 0-6.987-0.932-8.85 0.932-1.397 1.863-0.932 4.658-0.932 7.453-4.658-0.466-5.124-7.453-9.315-6.056-4.192 0.932-8.85 1.397-12.577 3.727 2.795 5.59-4.658 2.329-3.726 3.26-6.987-4.192-13.042-7.453-20.495-4.658-15.837-5.124-35.4-2.795-49.84-0.931 0-2.329 0.466-4.658-0.466-5.124-0.932 2.329-3.726 1.397-3.26 1.397-8.85-6.055-17.7-9.782-27.016-14.905-8.384 0.932-16.303-3.261-18.632-5.59-6.521-6.055-13.974-2.795-20.029-4.192-13.042-3.261-17.7-16.769-19.098-26.084-0.932-4.658-4.658-6.521-6.055-6.056-6.055-19.563-15.371-37.263-22.824-55.429-1.863-4.658-1.397-9.316-1.397-14.44 2.329 0.932 4.658 0.466 4.192-2.794-2.329-15.371-7.918-27.016-13.974-38.195 3.261-15.837 3.726-34.469 11.179-48.443 6.521-12.576 18.632-19.098 27.016-29.811 2.795-3.726 2.795-8.85 5.59-12.11 9.316-9.316 18.632-19.098 28.879-27.482 4.658-3.726 10.247 0 17.234-1.397 2.329-8.384 11.645-15.837 20.495-13.508 3.726 0.932 11.179-8.85 13.508-9.782 3.726-1.397 1.863 3.726 1.863 6.987 8.85-6.987 20.961-10.713 32.14-14.906" fill="#ff5858" data-fill-palette-color="tertiary"></path></g><g transform="matrix(1,0,0,1,64,157.35219855817968)"><svg viewBox="0 0 192 45.295602883640655" height="45.295602883640655" width="192"><g><svg viewBox="0 0 192 45.295602883640655" height="45.295602883640655" width="192"><g><svg viewBox="0 0 192 45.295602883640655" height="45.295602883640655" width="192"><g transform="matrix(1,0,0,1,0,33.71082453919185)"><svg viewBox="0 0 192 11.584778344448804" height="11.584778344448804" width="192"><g><svg viewBox="0 0 192 11.584778344448804" height="11.584778344448804" width="192"><g><svg viewBox="0 0 192 11.584778344448804" height="11.584778344448804" width="192"><g transform="matrix(1,0,0,1,0,0)"><svg width="192" viewBox="3.759999990463257 -37.349998474121094 622.27001953125 37.54999923706055" height="11.584778344448804" data-palette-color="#ff5858"><path d="M38.48-17.53L38.48-17.53Q38.48-16.11 38.48-14.55 38.48-12.99 38.13-11.57L38.13-11.57Q37.89-10.5 37.6-9.69 37.3-8.89 36.87-8.23 36.43-7.57 35.79-7.01 35.16-6.45 34.23-5.91L34.23-5.91Q33.94-5.71 32.67-5.4 31.4-5.08 29.52-4.64 27.64-4.2 25.32-3.71 23-3.22 20.58-2.76 18.16-2.29 15.8-1.83 13.43-1.37 11.5-1 9.57-0.63 8.23-0.37 6.88-0.1 6.45-0.05L6.45-0.05Q5.62-8.98 4.88-17.77 4.15-26.56 3.76-35.55L3.76-35.55Q7.86-35.4 11.91-35.23 15.97-35.06 20.12-34.77L20.12-34.77Q21.19-34.67 23.27-34.52 25.34-34.38 27.59-34.11 29.83-33.84 31.81-33.45 33.79-33.06 34.67-32.47L34.67-32.47Q35.79-31.64 36.67-30.22 37.55-28.81 37.94-27.44L37.94-27.44Q38.13-26.81 38.23-25.46 38.33-24.12 38.38-22.61 38.43-21.09 38.45-19.68 38.48-18.26 38.48-17.53ZM26.32-16.89L26.32-16.89Q26.32-17.43 26.29-18.04 26.27-18.65 26.22-19.19L26.22-19.19Q26.12-19.97 25.95-20.83 25.78-21.68 25.49-22.49 25.2-23.29 24.76-24 24.32-24.71 23.68-25.24L23.68-25.24Q23.34-25.54 22.02-25.71 20.7-25.88 19.14-25.95 17.58-26.03 16.21-26.05 14.84-26.07 14.45-26.07L14.45-26.07 12.45-26.07Q12.84-22.27 13.16-18.58 13.48-14.89 13.72-11.08L13.72-11.08Q14.65-11.13 16.38-11.35 18.12-11.57 19.92-11.94 21.73-12.3 23.29-12.87 24.85-13.43 25.54-14.21L25.54-14.21Q26.07-14.79 26.2-15.45 26.32-16.11 26.32-16.89ZM77.44-18.12L77.44-18.12Q71.04-17.77 64.69-17.55 58.35-17.33 51.95-17.09L51.95-17.09Q51.9-16.89 51.9-16.7 51.9-16.5 51.9-16.31L51.9-16.31Q51.9-14.65 52.66-13.77 53.42-12.89 54.54-12.52 55.66-12.16 57.03-12.11 58.4-12.06 59.57-12.06L59.57-12.06Q62.84-12.06 66.11-12.28 69.38-12.5 72.7-12.74L72.7-12.74 73.09-4.98Q69.87-4.83 66.67-4.74 63.47-4.64 60.25-4.64L60.25-4.64Q59.57-4.64 57.74-4.66 55.91-4.69 53.83-4.81 51.76-4.93 49.95-5.13 48.14-5.32 47.56-5.66L47.56-5.66Q46.04-6.54 45.19-7.91 44.33-9.28 43.87-10.89 43.41-12.5 43.23-14.18 43.06-15.87 43.02-17.43L43.02-17.43Q42.97-17.68 42.99-17.94 43.02-18.21 43.02-18.46L43.02-18.46Q43.02-21.04 43.58-23.27 44.14-25.49 45.65-27.59L45.65-27.59Q46.68-29.05 48.68-30.03 50.68-31.01 53.02-31.57 55.37-32.13 57.71-32.35 60.06-32.57 61.77-32.57L61.77-32.57Q63.28-32.57 65.48-32.3 67.67-32.03 69.85-31.4 72.02-30.76 73.78-29.76 75.53-28.76 76.17-27.29L76.17-27.29Q76.27-27 76.39-26.29 76.51-25.59 76.66-24.68 76.8-23.78 76.93-22.75 77.05-21.73 77.15-20.8 77.24-19.87 77.32-19.14 77.39-18.41 77.44-18.12ZM54.49-21.14L70.8-21.68Q70.51-23.83 69.7-25.07 68.89-26.32 67.7-26.93 66.5-27.54 64.96-27.71 63.43-27.88 61.67-27.88L61.67-27.88Q61.08-27.88 60.2-27.86 59.32-27.83 58.44-27.71 57.57-27.59 56.78-27.34 56-27.1 55.56-26.66L55.56-26.66Q55.22-26.37 55-25.85 54.78-25.34 54.64-24.76 54.49-24.17 54.42-23.61 54.34-23.05 54.34-22.66L54.34-22.66Q54.34-21.88 54.49-21.14L54.49-21.14ZM108.3-33.89L108.3-33.89 108-27.54Q106.49-27.64 104.98-27.69 103.46-27.73 101.95-27.73L101.95-27.73Q101.31-27.73 100.14-27.71 98.97-27.69 97.53-27.64 96.09-27.59 94.58-27.49 93.06-27.39 91.79-27.29 90.52-27.2 89.64-27.05 88.76-26.9 88.57-26.76L88.57-26.76Q87.93-26.12 87.93-25.29L87.93-25.29Q87.93-24.76 88.23-24.41L88.23-24.41Q88.33-24.27 89.3-24.17 90.28-24.07 91.69-24 93.11-23.93 94.79-23.9 96.48-23.88 98.02-23.85 99.56-23.83 100.75-23.78 101.95-23.73 102.44-23.68L102.44-23.68Q104.29-23.44 105.39-22.61 106.49-21.78 107.08-20.53 107.66-19.29 107.83-17.72 108-16.16 108-14.55L108-14.55Q108-13.77 107.88-12.7 107.76-11.62 107.51-10.55 107.27-9.47 106.81-8.54 106.34-7.62 105.71-7.08L105.71-7.08Q104.98-6.49 103.34-6.1 101.7-5.71 99.82-5.47 97.94-5.22 96.19-5.13 94.43-5.03 93.5-5.03L93.5-5.03Q90.28-5.03 87.06-5.4 83.83-5.76 80.66-6.2L80.66-6.2 80.66-15.53Q83.74-14.89 86.84-14.79 89.94-14.7 93.06-14.45L93.06-14.45Q93.7-14.4 94.99-14.38 96.28-14.36 97.6-14.43 98.92-14.5 100-14.75 101.07-14.99 101.31-15.43L101.31-15.43Q101.41-15.58 101.41-15.77 101.41-15.97 101.41-16.11L101.41-16.11Q101.41-16.5 101.34-17.11 101.26-17.72 101.02-18.07L101.02-18.07Q100.97-18.12 100.68-18.14 100.39-18.16 100.34-18.16L100.34-18.16Q97.6-18.31 94.87-18.33 92.13-18.36 89.35-18.6L89.35-18.6Q88.23-18.7 87.08-18.82 85.93-18.95 84.81-19.19L84.81-19.19Q83.88-19.38 83.12-19.63 82.37-19.87 81.81-20.26 81.25-20.65 80.85-21.26 80.46-21.88 80.32-22.9L80.32-22.9Q80.22-23.24 80.22-23.56 80.22-23.88 80.22-24.27L80.22-24.27Q80.22-25.15 80.32-26.27 80.41-27.39 80.68-28.52 80.95-29.64 81.37-30.64 81.78-31.64 82.47-32.28L82.47-32.28Q82.91-32.71 84.03-33.01 85.15-33.3 86.62-33.52 88.08-33.74 89.74-33.89 91.4-34.03 92.94-34.11 94.48-34.18 95.72-34.2 96.97-34.23 97.6-34.23L97.6-34.23Q100.34-34.23 103-34.13 105.66-34.03 108.3-33.89ZM136.81-8.64L136.81-8.64 135.98-0.05Q134.42 0.05 132.85 0.12 131.29 0.2 129.73 0.2L129.73 0.2Q128.9 0.2 127.53 0.15 126.16 0.1 124.7-0.02 123.23-0.15 121.92-0.37 120.6-0.59 119.82-0.93L119.82-0.93Q118.64-1.46 117.89-2.34 117.13-3.22 116.64-4.27 116.15-5.32 115.86-6.52 115.57-7.71 115.42-8.89L115.42-8.89Q115.28-10.01 115.2-11.3 115.13-12.6 115.1-13.96 115.08-15.33 115.08-16.63 115.08-17.92 115.08-19.04L115.08-19.04 115.08-20.51 112.05-20.51Q112.25-22.71 112.27-24.85 112.3-27 112.49-29.2L112.49-29.2 115.42-29.1 115.42-36.33Q118.21-35.79 120.96-35.77 123.72-35.74 126.51-35.55L126.51-35.55 126.41-28.08 130.51-27.83Q130.51-27.49 130.53-27.2 130.56-26.9 130.56-26.56L130.56-26.56Q130.56-25.2 130.34-23.9 130.12-22.61 129.78-21.29L129.78-21.29 126.21-21.29Q126.12-19.04 126.07-16.8 126.02-14.55 126.02-12.3L126.02-12.3Q126.02-11.23 126.09-10.38 126.16-9.52 126.48-8.94 126.8-8.35 127.53-8.06 128.26-7.76 129.58-7.76L129.58-7.76Q131.39-7.76 133.2-8.01 135-8.25 136.81-8.64ZM145.35-32.67L145.35-32.67Q145.35-31.69 144.94-30.83 144.52-29.98 143.81-29.35 143.11-28.71 142.23-28.34 141.35-27.98 140.47-27.98L140.47-27.98Q139.49-27.98 138.64-28.42 137.78-28.86 137.15-29.54 136.51-30.22 136.17-31.13 135.83-32.03 135.83-32.96L135.83-32.96Q135.83-33.89 136.2-34.69 136.56-35.5 137.17-36.08 137.78-36.67 138.59-37.01 139.39-37.35 140.32-37.35L140.32-37.35Q141.25-37.35 142.15-36.99 143.06-36.62 143.76-35.96 144.47-35.3 144.91-34.45 145.35-33.59 145.35-32.67ZM147.35-24.37L147.35-24.37Q147.11-21.78 146.96-19.24 146.82-16.7 146.67-14.16L146.67-14.16Q146.47-11.18 146.01-8.25 145.55-5.32 144.96-2.39L144.96-2.39 137.49-1.61Q137.49-3.17 137.51-4.69 137.54-6.2 137.54-7.76L137.54-7.76Q137.54-11.77 137.39-15.77 137.25-19.78 137.1-23.78L137.1-23.78Q139.69-23.88 142.2-24.07 144.72-24.27 147.35-24.37ZM181.38-14.5L181.38-14.5Q181.38-13.18 181.38-11.84 181.38-10.5 181.29-9.18L181.29-9.18 170.4-8.5Q170.59-11.04 170.72-13.53 170.84-16.02 170.84-18.6L170.84-18.6Q170.84-18.85 170.84-19.43 170.84-20.02 170.79-20.68 170.74-21.34 170.69-21.92 170.64-22.51 170.59-22.75L170.59-22.75Q170.35-23.44 170.08-23.93 169.81-24.41 169.45-24.71 169.08-25 168.54-25.12 168.01-25.24 167.22-25.24L167.22-25.24Q166.64-25.24 165.73-25.15 164.83-25.05 163.9-24.85 162.98-24.66 162.15-24.37 161.32-24.07 160.97-23.68L160.97-23.68 160.88-9.28Q160.78-9.47 160.31-9.47 159.85-9.47 159.66-9.47L159.66-9.47Q158.19-9.47 156.63-9.35 155.07-9.23 153.6-9.03L153.6-9.03Q152.97-14.79 152.48-20.51 151.99-26.22 151.35-31.98L151.35-31.98Q152.33-32.03 153.31-32.06 154.28-32.08 155.26-32.08L155.26-32.08Q156.53-32.08 157.82-32.01 159.12-31.93 160.39-31.88L160.39-31.88 160.73-28.13Q162.1-30.37 164.44-31.88 166.78-33.4 169.47-33.4L169.47-33.4Q170.84-33.4 172.3-33.25 173.77-33.11 175.11-32.67 176.45-32.23 177.65-31.45 178.84-30.66 179.68-29.44L179.68-29.44Q180.07-28.86 180.33-27.71 180.6-26.56 180.8-25.12 180.99-23.68 181.12-22.07 181.24-20.46 181.29-18.99 181.34-17.53 181.36-16.33 181.38-15.14 181.38-14.5ZM220.98-22.02L220.98-22.02Q220.98-17.92 220.69-13.87 220.4-9.81 220.1-5.76L220.1-5.76Q214.63-5.27 209.21-4.93 203.79-4.59 198.32-4.59L198.32-4.59Q197.84-4.59 196.52-4.61 195.2-4.64 193.74-4.71 192.27-4.79 190.95-4.91 189.63-5.03 189.19-5.27L189.19-5.27Q187.58-6.15 186.95-7.5 186.31-8.84 186.31-10.55L186.31-10.55Q186.31-11.13 186.36-12.11 186.41-13.09 186.56-14.16 186.7-15.23 186.95-16.16 187.19-17.09 187.53-17.53L187.53-17.53Q187.97-18.12 189.54-18.53 191.1-18.95 193.27-19.19 195.44-19.43 197.96-19.58 200.47-19.73 202.77-19.8 205.06-19.87 206.87-19.87 208.68-19.87 209.46-19.87L209.46-19.87Q209.6-20.95 209.6-21.97L209.6-21.97Q209.6-22.07 209.6-22.49 209.6-22.9 209.56-23L209.56-23Q209.41-23.29 208.63-23.49 207.85-23.68 206.7-23.78 205.55-23.88 204.21-23.95 202.87-24.02 201.6-24.02 200.33-24.02 199.35-24.02 198.37-24.02 197.93-24.02L197.93-24.02Q194.86-24.02 191.78-23.9 188.71-23.78 185.63-23.68L185.63-23.68Q185.82-25.54 185.95-27.44 186.07-29.35 185.97-31.2L185.97-31.2Q189.54-31.84 193.12-32.1 196.71-32.37 200.38-32.37L200.38-32.37Q201.69-32.37 203.26-32.35 204.82-32.32 206.38-32.25 207.94-32.18 209.48-32.03 211.02-31.88 212.34-31.64L212.34-31.64Q213.71-31.4 215.05-30.76 216.39-30.13 217.56-29.2 218.74-28.27 219.61-27.08 220.49-25.88 220.88-24.51L220.88-24.51Q220.93-24.37 220.96-24.02 220.98-23.68 220.98-23.27 220.98-22.85 220.98-22.51 220.98-22.17 220.98-22.02ZM210.09-10.55L210.09-10.55 210.09-16.8Q208.68-16.85 207.26-16.87 205.84-16.89 204.43-16.89L204.43-16.89Q204.14-16.89 202.79-16.87 201.45-16.85 199.91-16.75 198.37-16.65 197.1-16.5 195.83-16.36 195.64-16.06L195.64-16.06Q195.4-15.67 195.32-15.26 195.25-14.84 195.25-14.4L195.25-14.4Q195.25-14.06 195.3-13.48 195.35-12.89 195.47-12.26 195.59-11.62 195.74-11.08 195.88-10.55 196.13-10.3L196.13-10.3Q196.32-10.06 196.79-9.94 197.25-9.81 197.79-9.74 198.32-9.67 198.86-9.64 199.4-9.62 199.69-9.62L199.69-9.62Q200.86-9.62 202.21-9.72 203.55-9.81 204.94-9.94 206.33-10.06 207.65-10.23 208.97-10.4 210.09-10.55ZM249.98-8.64L249.98-8.64 249.15-0.05Q247.59 0.05 246.03 0.12 244.46 0.2 242.9 0.2L242.9 0.2Q242.07 0.2 240.71 0.15 239.34 0.1 237.87-0.02 236.41-0.15 235.09-0.37 233.77-0.59 232.99-0.93L232.99-0.93Q231.82-1.46 231.06-2.34 230.3-3.22 229.82-4.27 229.33-5.32 229.04-6.52 228.74-7.71 228.6-8.89L228.6-8.89Q228.45-10.01 228.38-11.3 228.3-12.6 228.28-13.96 228.25-15.33 228.25-16.63 228.25-17.92 228.25-19.04L228.25-19.04 228.25-20.51 225.23-20.51Q225.42-22.71 225.45-24.85 225.47-27 225.67-29.2L225.67-29.2 228.6-29.1 228.6-36.33Q231.38-35.79 234.14-35.77 236.9-35.74 239.68-35.55L239.68-35.55 239.58-28.08 243.68-27.83Q243.68-27.49 243.71-27.2 243.73-26.9 243.73-26.56L243.73-26.56Q243.73-25.2 243.51-23.9 243.29-22.61 242.95-21.29L242.95-21.29 239.39-21.29Q239.29-19.04 239.24-16.8 239.19-14.55 239.19-12.3L239.19-12.3Q239.19-11.23 239.26-10.38 239.34-9.52 239.66-8.94 239.97-8.35 240.71-8.06 241.44-7.76 242.76-7.76L242.76-7.76Q244.56-7.76 246.37-8.01 248.18-8.25 249.98-8.64ZM258.52-32.67L258.52-32.67Q258.52-31.69 258.11-30.83 257.69-29.98 256.99-29.35 256.28-28.71 255.4-28.34 254.52-27.98 253.64-27.98L253.64-27.98Q252.67-27.98 251.81-28.42 250.96-28.86 250.32-29.54 249.69-30.22 249.35-31.13 249-32.03 249-32.96L249-32.96Q249-33.89 249.37-34.69 249.74-35.5 250.35-36.08 250.96-36.67 251.76-37.01 252.57-37.35 253.5-37.35L253.5-37.35Q254.42-37.35 255.33-36.99 256.23-36.62 256.94-35.96 257.65-35.3 258.09-34.45 258.52-33.59 258.52-32.67ZM260.53-24.37L260.53-24.37Q260.28-21.78 260.14-19.24 259.99-16.7 259.84-14.16L259.84-14.16Q259.65-11.18 259.18-8.25 258.72-5.32 258.13-2.39L258.13-2.39 250.66-1.61Q250.66-3.17 250.69-4.69 250.71-6.2 250.71-7.76L250.71-7.76Q250.71-11.77 250.57-15.77 250.42-19.78 250.27-23.78L250.27-23.78Q252.86-23.88 255.38-24.07 257.89-24.27 260.53-24.37ZM301.83-19.34L301.83-19.34Q301.83-18.95 301.83-18.58 301.83-18.21 301.78-17.82L301.78-17.82Q301.74-17.14 301.54-15.58 301.34-14.01 301-12.33 300.66-10.64 300.17-9.23 299.68-7.81 299.1-7.42L299.1-7.42Q298.81-7.23 297.12-7.08 295.44-6.93 293.02-6.79 290.6-6.64 287.77-6.54 284.94-6.45 282.37-6.37 279.81-6.3 277.88-6.25 275.95-6.2 275.32-6.2L275.32-6.2Q275.03-6.2 274.32-6.2 273.61-6.2 272.83-6.23 272.05-6.25 271.36-6.3 270.68-6.35 270.39-6.45L270.39-6.45Q269.7-6.69 269.02-7.25 268.34-7.81 267.75-8.52 267.17-9.23 266.7-9.99 266.24-10.74 266.04-11.43L266.04-11.43Q265.9-11.96 265.8-13.06 265.7-14.16 265.65-15.36 265.6-16.55 265.58-17.68 265.55-18.8 265.55-19.38L265.55-19.38Q265.55-20.31 265.6-21.95 265.65-23.58 265.9-25.29 266.14-27 266.6-28.49 267.07-29.98 267.95-30.57L267.95-30.57Q268.34-30.81 269.41-31.01 270.49-31.2 271.95-31.35 273.42-31.49 275.08-31.57 276.74-31.64 278.32-31.67 279.91-31.69 281.28-31.69 282.64-31.69 283.47-31.64L283.47-31.64Q284.21-31.59 285.57-31.57 286.94-31.54 288.62-31.49 290.31-31.45 292.12-31.32 293.92-31.2 295.49-31.01 297.05-30.81 298.24-30.49 299.44-30.18 299.83-29.74L299.83-29.74Q300.47-29.05 300.86-27.69 301.25-26.32 301.47-24.78 301.69-23.24 301.76-21.75 301.83-20.26 301.83-19.34ZM291.48-18.31L291.48-18.31Q291.48-18.9 291.43-19.68 291.38-20.46 291.29-21.26 291.19-22.07 290.99-22.83 290.8-23.58 290.5-24.07L290.5-24.07Q290.11-24.71 288.99-25.05 287.87-25.39 286.53-25.56 285.18-25.73 283.89-25.78 282.59-25.83 281.96-25.83L281.96-25.83Q281.62-25.83 280.74-25.81 279.86-25.78 278.91-25.73 277.96-25.68 277.13-25.56 276.3-25.44 276.05-25.29L276.05-25.29Q275.61-25 275.37-24.39 275.12-23.78 275-23.05 274.88-22.31 274.86-21.61 274.83-20.9 274.83-20.46L274.83-20.46Q274.83-20.02 274.9-18.87 274.98-17.72 275.1-16.43 275.22-15.14 275.42-14.06 275.61-12.99 275.91-12.7L275.91-12.7Q276.25-12.3 277.2-12.06 278.15-11.82 279.25-11.65 280.35-11.47 281.37-11.4 282.4-11.33 282.84-11.33L282.84-11.33Q283.62-11.33 284.69-11.38 285.77-11.43 286.87-11.62 287.97-11.82 288.94-12.16 289.92-12.5 290.5-13.09L290.5-13.09Q290.85-13.43 291.04-14.11 291.24-14.79 291.33-15.58 291.43-16.36 291.46-17.11 291.48-17.87 291.48-18.31ZM335.38-14.5L335.38-14.5Q335.38-13.18 335.38-11.84 335.38-10.5 335.28-9.18L335.28-9.18 324.39-8.5Q324.58-11.04 324.71-13.53 324.83-16.02 324.83-18.6L324.83-18.6Q324.83-18.85 324.83-19.43 324.83-20.02 324.78-20.68 324.73-21.34 324.68-21.92 324.63-22.51 324.58-22.75L324.58-22.75Q324.34-23.44 324.07-23.93 323.8-24.41 323.44-24.71 323.07-25 322.53-25.12 322-25.24 321.22-25.24L321.22-25.24Q320.63-25.24 319.73-25.15 318.82-25.05 317.89-24.85 316.97-24.66 316.14-24.37 315.31-24.07 314.97-23.68L314.97-23.68 314.87-9.28Q314.77-9.47 314.31-9.47 313.84-9.47 313.65-9.47L313.65-9.47Q312.18-9.47 310.62-9.35 309.06-9.23 307.59-9.03L307.59-9.03Q306.96-14.79 306.47-20.51 305.98-26.22 305.35-31.98L305.35-31.98Q306.32-32.03 307.3-32.06 308.28-32.08 309.25-32.08L309.25-32.08Q310.52-32.08 311.82-32.01 313.11-31.93 314.38-31.88L314.38-31.88 314.72-28.13Q316.09-30.37 318.43-31.88 320.78-33.4 323.46-33.4L323.46-33.4Q324.83-33.4 326.29-33.25 327.76-33.11 329.1-32.67 330.44-32.23 331.64-31.45 332.84-30.66 333.67-29.44L333.67-29.44Q334.06-28.86 334.33-27.71 334.59-26.56 334.79-25.12 334.98-23.68 335.11-22.07 335.23-20.46 335.28-18.99 335.33-17.53 335.35-16.33 335.38-15.14 335.38-14.5ZM397.43-24.51L397.43-24.51Q397.43-23.44 397.31-21.92 397.19-20.41 396.92-18.85 396.65-17.29 396.16-15.92 395.67-14.55 394.94-13.77L394.94-13.77Q394.65-13.43 393.06-13.11 391.47-12.79 389.25-12.48 387.03-12.16 384.49-11.87 381.95-11.57 379.68-11.35 377.41-11.13 375.75-10.99 374.09-10.84 373.65-10.84L373.65-10.84 373.26-0.68Q371.75-0.59 370.28-0.66 368.82-0.73 367.3-0.73L367.3-0.73Q366.33-0.73 365.35-0.68 364.37-0.63 363.4-0.54L363.4-0.54Q363.4-5.13 363.4-9.62 363.4-14.11 363.2-18.7L363.2-18.7Q363.06-22.85 362.93-26.95 362.81-31.05 362.71-35.21L362.71-35.21Q367.74-35.55 372.85-36.06 377.95-36.57 383.03-36.57L383.03-36.57Q383.91-36.57 385.81-36.4 387.71-36.23 389.81-35.86 391.91-35.5 393.7-34.96 395.48-34.42 396.06-33.74L396.06-33.74Q396.45-33.3 396.72-32.03 396.99-30.76 397.14-29.32 397.28-27.88 397.36-26.51 397.43-25.15 397.43-24.51ZM383.76-24.85L383.76-24.85Q383.76-25.29 383.71-25.98 383.66-26.66 383.54-27.32 383.42-27.98 383.17-28.54 382.93-29.1 382.54-29.35L382.54-29.35Q382.29-29.49 381.76-29.59 381.22-29.69 380.63-29.74 380.05-29.79 379.51-29.81 378.97-29.83 378.73-29.83L378.73-29.83Q376.92-29.83 375.12-29.64 373.31-29.44 371.45-29.15L371.45-29.15Q371.6-27.69 371.63-26.27 371.65-24.85 371.65-23.44L371.65-23.44Q371.65-21.14 371.8-18.8L371.8-18.8Q372.43-18.8 373.99-18.87 375.56-18.95 377.26-19.12 378.97-19.29 380.49-19.6 382-19.92 382.54-20.46L382.54-20.46Q383.42-21.29 383.59-22.49 383.76-23.68 383.76-24.85ZM430.92-20.61L430.92-20.61 430.92-19.48 421.5-19.04Q421.65-19.68 421.65-20.51L421.65-20.51Q421.65-21.73 421.31-22.09 420.96-22.46 419.79-22.46L419.79-22.46Q418.13-22.46 416.13-21.88 414.13-21.29 412.61-20.75L412.61-20.75Q412.37-18.6 412.22-16.46 412.08-14.31 412.08-12.16L412.08-12.16Q412.08-9.77 412.1-7.4 412.13-5.03 412.17-2.64L412.17-2.64 403.78-2.1Q403.53-5.22 403.29-8.33 403.04-11.43 402.85-14.55L402.85-14.55Q402.6-18.7 402.21-22.83 401.82-26.95 401.43-31.15L401.43-31.15Q404.22-30.96 406.97-30.59 409.73-30.22 412.52-29.69L412.52-29.69 412.27-25.59Q413.74-26.76 415.08-27.61 416.42-28.47 417.81-29.05 419.21-29.64 420.77-29.91 422.33-30.18 424.24-30.18L424.24-30.18Q425.5-30.18 426.87-29.91 428.24-29.64 429.22-28.66L429.22-28.66Q429.7-28.13 430.05-27.05 430.39-25.98 430.58-24.78 430.78-23.58 430.85-22.44 430.92-21.29 430.92-20.61ZM469.45-19.34L469.45-19.34Q469.45-18.95 469.45-18.58 469.45-18.21 469.4-17.82L469.4-17.82Q469.35-17.14 469.15-15.58 468.96-14.01 468.62-12.33 468.28-10.64 467.79-9.23 467.3-7.81 466.71-7.42L466.71-7.42Q466.42-7.23 464.74-7.08 463.05-6.93 460.63-6.79 458.22-6.64 455.38-6.54 452.55-6.45 449.99-6.37 447.43-6.3 445.5-6.25 443.57-6.2 442.93-6.2L442.93-6.2Q442.64-6.2 441.93-6.2 441.22-6.2 440.44-6.23 439.66-6.25 438.98-6.3 438.3-6.35 438-6.45L438-6.45Q437.32-6.69 436.63-7.25 435.95-7.81 435.37-8.52 434.78-9.23 434.32-9.99 433.85-10.74 433.66-11.43L433.66-11.43Q433.51-11.96 433.41-13.06 433.31-14.16 433.27-15.36 433.22-16.55 433.19-17.68 433.17-18.8 433.17-19.38L433.17-19.38Q433.17-20.31 433.22-21.95 433.27-23.58 433.51-25.29 433.75-27 434.22-28.49 434.68-29.98 435.56-30.57L435.56-30.57Q435.95-30.81 437.03-31.01 438.1-31.2 439.56-31.35 441.03-31.49 442.69-31.57 444.35-31.64 445.94-31.67 447.52-31.69 448.89-31.69 450.26-31.69 451.09-31.64L451.09-31.64Q451.82-31.59 453.19-31.57 454.55-31.54 456.24-31.49 457.92-31.45 459.73-31.32 461.54-31.2 463.1-31.01 464.66-30.81 465.86-30.49 467.05-30.18 467.45-29.74L467.45-29.74Q468.08-29.05 468.47-27.69 468.86-26.32 469.08-24.78 469.3-23.24 469.37-21.75 469.45-20.26 469.45-19.34ZM459.1-18.31L459.1-18.31Q459.1-18.9 459.05-19.68 459-20.46 458.9-21.26 458.8-22.07 458.61-22.83 458.41-23.58 458.12-24.07L458.12-24.07Q457.73-24.71 456.61-25.05 455.48-25.39 454.14-25.56 452.8-25.73 451.5-25.78 450.21-25.83 449.57-25.83L449.57-25.83Q449.23-25.83 448.35-25.81 447.47-25.78 446.52-25.73 445.57-25.68 444.74-25.56 443.91-25.44 443.67-25.29L443.67-25.29Q443.23-25 442.98-24.39 442.74-23.78 442.62-23.05 442.49-22.31 442.47-21.61 442.45-20.9 442.45-20.46L442.45-20.46Q442.45-20.02 442.52-18.87 442.59-17.72 442.71-16.43 442.84-15.14 443.03-14.06 443.23-12.99 443.52-12.7L443.52-12.7Q443.86-12.3 444.81-12.06 445.77-11.82 446.86-11.65 447.96-11.47 448.99-11.4 450.01-11.33 450.45-11.33L450.45-11.33Q451.23-11.33 452.31-11.38 453.38-11.43 454.48-11.62 455.58-11.82 456.56-12.16 457.53-12.5 458.12-13.09L458.12-13.09Q458.46-13.43 458.66-14.11 458.85-14.79 458.95-15.58 459.05-16.36 459.07-17.11 459.1-17.87 459.1-18.31ZM504.5-27.54L504.5-27.54Q502.7-24.17 500.94-21.02 499.18-17.87 497.35-14.82 495.52-11.77 493.57-8.74 491.61-5.71 489.42-2.59L489.42-2.59 480.92-2.25 471.25-27.78 482.09-28.08Q483.07-23.54 483.97-19.02 484.87-14.5 485.85-9.91L485.85-9.91Q487.71-14.21 489.44-18.46 491.17-22.71 492.59-27.2L492.59-27.2Q495.62-27.2 498.55-27.25 501.48-27.29 504.5-27.54ZM514.51-32.67L514.51-32.67Q514.51-31.69 514.1-30.83 513.68-29.98 512.97-29.35 512.26-28.71 511.39-28.34 510.51-27.98 509.63-27.98L509.63-27.98Q508.65-27.98 507.8-28.42 506.94-28.86 506.31-29.54 505.67-30.22 505.33-31.13 504.99-32.03 504.99-32.96L504.99-32.96Q504.99-33.89 505.36-34.69 505.72-35.5 506.33-36.08 506.94-36.67 507.75-37.01 508.55-37.35 509.48-37.35L509.48-37.35Q510.41-37.35 511.31-36.99 512.22-36.62 512.92-35.96 513.63-35.3 514.07-34.45 514.51-33.59 514.51-32.67ZM516.51-24.37L516.51-24.37Q516.27-21.78 516.12-19.24 515.98-16.7 515.83-14.16L515.83-14.16Q515.63-11.18 515.17-8.25 514.71-5.32 514.12-2.39L514.12-2.39 506.65-1.61Q506.65-3.17 506.67-4.69 506.7-6.2 506.7-7.76L506.7-7.76Q506.7-11.77 506.55-15.77 506.41-19.78 506.26-23.78L506.26-23.78Q508.85-23.88 511.36-24.07 513.88-24.27 516.51-24.37ZM555.52-27.15L555.52-27.15Q555.52-25.1 555.52-23.1 555.52-21.09 555.43-19.04L555.43-19.04Q555.33-14.55 555.04-10.13 554.74-5.71 554.4-1.27L554.4-1.27Q549.96-0.98 545.61-0.78 541.27-0.59 536.82-0.59L536.82-0.59Q536.24-0.59 534.97-0.61 533.7-0.63 532.26-0.68 530.82-0.73 529.55-0.85 528.28-0.98 527.69-1.22L527.69-1.22Q523.93-2.59 522.1-4.91 520.27-7.23 520.27-11.33L520.27-11.33 520.27-12.11Q520.37-13.92 520.56-15.33 520.76-16.75 521.27-17.92 521.78-19.09 522.69-20.09 523.59-21.09 525.15-22.12L525.15-22.12Q526.23-22.85 527.69-23.34 529.16-23.83 530.74-24.17 532.33-24.51 533.87-24.66 535.41-24.8 536.68-24.8L536.68-24.8Q539.02-24.8 541.34-24.46 543.66-24.12 545.95-23.44L545.95-23.44Q545.71-26.66 545.54-29.81 545.37-32.96 545.03-36.13L545.03-36.13Q547.66-36.38 550.25-36.67 552.84-36.96 555.43-37.26L555.43-37.26Q555.48-34.72 555.5-32.2 555.52-29.69 555.52-27.15ZM548.05-12.4L548.05-12.4Q548.05-13.53 548.05-14.65 548.05-15.77 548-16.89L548-16.89Q544.93-17.04 541.85-17.04L541.85-17.04Q541.41-17.04 540-17.02 538.58-16.99 536.99-16.92 535.41-16.85 534.04-16.67 532.67-16.5 532.28-16.26L532.28-16.26Q531.55-15.72 531.38-14.75 531.21-13.77 531.21-12.94L531.21-12.94Q531.21-12.55 531.26-11.89 531.31-11.23 531.43-10.52 531.55-9.81 531.74-9.2 531.94-8.59 532.18-8.3L532.18-8.3Q532.33-8.15 532.7-8.06 533.06-7.96 533.5-7.91 533.94-7.86 534.36-7.86 534.77-7.86 535.02-7.86L535.02-7.86Q537.8-7.86 540.53-8.11 543.27-8.35 546.05-8.74L546.05-8.74Q546.44-8.84 546.98-8.86 547.52-8.89 547.96-9.03L547.96-9.03 547.96-9.13Q547.96-9.18 548-9.23L548-9.23Q548.1-10.01 548.08-10.79 548.05-11.57 548.05-12.4ZM594-18.12L594-18.12Q587.6-17.77 581.25-17.55 574.91-17.33 568.51-17.09L568.51-17.09Q568.46-16.89 568.46-16.7 568.46-16.5 568.46-16.31L568.46-16.31Q568.46-14.65 569.22-13.77 569.97-12.89 571.1-12.52 572.22-12.16 573.59-12.11 574.95-12.06 576.13-12.06L576.13-12.06Q579.4-12.06 582.67-12.28 585.94-12.5 589.26-12.74L589.26-12.74 589.65-4.98Q586.43-4.83 583.23-4.74 580.03-4.64 576.81-4.64L576.81-4.64Q576.13-4.64 574.3-4.66 572.46-4.69 570.39-4.81 568.31-4.93 566.51-5.13 564.7-5.32 564.12-5.66L564.12-5.66Q562.6-6.54 561.75-7.91 560.89-9.28 560.43-10.89 559.96-12.5 559.79-14.18 559.62-15.87 559.57-17.43L559.57-17.43Q559.53-17.68 559.55-17.94 559.57-18.21 559.57-18.46L559.57-18.46Q559.57-21.04 560.14-23.27 560.7-25.49 562.21-27.59L562.21-27.59Q563.24-29.05 565.24-30.03 567.24-31.01 569.58-31.57 571.93-32.13 574.27-32.35 576.62-32.57 578.32-32.57L578.32-32.57Q579.84-32.57 582.04-32.3 584.23-32.03 586.41-31.4 588.58-30.76 590.34-29.76 592.09-28.76 592.73-27.29L592.73-27.29Q592.83-27 592.95-26.29 593.07-25.59 593.22-24.68 593.36-23.78 593.49-22.75 593.61-21.73 593.7-20.8 593.8-19.87 593.88-19.14 593.95-18.41 594-18.12ZM571.05-21.14L587.36-21.68Q587.06-23.83 586.26-25.07 585.45-26.32 584.26-26.93 583.06-27.54 581.52-27.71 579.98-27.88 578.23-27.88L578.23-27.88Q577.64-27.88 576.76-27.86 575.88-27.83 575-27.71 574.12-27.59 573.34-27.34 572.56-27.1 572.12-26.66L572.12-26.66Q571.78-26.37 571.56-25.85 571.34-25.34 571.2-24.76 571.05-24.17 570.98-23.61 570.9-23.05 570.9-22.66L570.9-22.66Q570.9-21.88 571.05-21.14L571.05-21.14ZM626.03-20.61L626.03-20.61 626.03-19.48 616.6-19.04Q616.75-19.68 616.75-20.51L616.75-20.51Q616.75-21.73 616.41-22.09 616.07-22.46 614.89-22.46L614.89-22.46Q613.23-22.46 611.23-21.88 609.23-21.29 607.72-20.75L607.72-20.75Q607.47-18.6 607.33-16.46 607.18-14.31 607.18-12.16L607.18-12.16Q607.18-9.77 607.2-7.4 607.23-5.03 607.28-2.64L607.28-2.64 598.88-2.1Q598.63-5.22 598.39-8.33 598.15-11.43 597.95-14.55L597.95-14.55Q597.71-18.7 597.32-22.83 596.93-26.95 596.53-31.15L596.53-31.15Q599.32-30.96 602.08-30.59 604.84-30.22 607.62-29.69L607.62-29.69 607.37-25.59Q608.84-26.76 610.18-27.61 611.52-28.47 612.92-29.05 614.31-29.64 615.87-29.91 617.43-30.18 619.34-30.18L619.34-30.18Q620.61-30.18 621.97-29.91 623.34-29.64 624.32-28.66L624.32-28.66Q624.81-28.13 625.15-27.05 625.49-25.98 625.68-24.78 625.88-23.58 625.95-22.44 626.03-21.29 626.03-20.61Z" opacity="1" transform="matrix(1,0,0,1,0,0)" fill="#ffffff" class="undefined-text-0" data-fill-palette-color="primary" id="text-0"></path></svg></g></svg></g></svg></g></svg></g><g transform="matrix(1,0,0,1,85.29239817733887,0)"><svg viewBox="0 0 21.41520364532227 32.0203273440565" height="32.0203273440565" width="21.41520364532227"><g><svg xmlns="http://www.w3.org/2000/svg" xmlns:xlink="http://www.w3.org/1999/xlink" version="1.1" x="0" y="0" viewBox="19.099002838134766 8.749001502990723 41.80201721191406 62.50299072265625" enable-background="new 0 0 80 80" xml:space="preserve" height="32.0203273440565" width="21.41520364532227" class="icon-icon-0" data-fill-palette-color="accent" id="icon-0"><g fill="#ff5858" data-fill-palette-color="accent"><path d="M60.807 48.469c-1.59-0.45-2.828-1.738-3.184-3.365l-0.02 0.004c-0.139-0.974-0.971-1.728-1.984-1.728-1.107 0-2.01 0.902-2.01 2.012 0 0.494 0.186 0.941 0.482 1.292 1.154 1.316 1.832 3.042 1.832 4.927 0 0.86-0.154 1.683-0.422 2.453l0.016 0.006c-0.051 0.137-0.088 0.282-0.088 0.437 0 0.682 0.555 1.235 1.234 1.235 0.475 0 0.877-0.278 1.084-0.671 0.574-1.083 1.672-1.84 2.949-1.963 0.121-0.904 0.205-1.822 0.205-2.76C60.902 49.713 60.863 49.089 60.807 48.469z" fill="#ffffff" data-fill-palette-color="accent"></path><path d="M24.302 54.87l-0.001 0.002c-2.877-0.838-4.99-3.479-5.022-6.616h-0.012c0.001-0.024 0.008-0.048 0.008-0.072 0-0.087-0.021-0.168-0.025-0.252-0.092 0.794-0.151 1.598-0.151 2.416 0 8.275 4.845 15.422 11.837 18.807 0.542-1.271 0.85-2.664 0.85-4.131C31.785 60.258 28.631 56.215 24.302 54.87z" fill="#ffffff" data-fill-palette-color="accent"></path><path d="M30.799 41.25c0.309 0 0.594-0.026 0.875-0.111 0.372-0.111 0.758-0.189 1.165-0.189 2.245 0 4.072 1.826 4.072 4.071 0 0.63-0.157 1.22-0.414 1.753l0.021 0.012c-0.252 0.571-0.396 1.199-0.396 1.863 0 2.568 2.089 4.658 4.658 4.658 2.568 0 4.658-2.09 4.658-4.658 0-0.631-0.129-1.232-0.357-1.782l0.012-0.005c-0.379-0.889-0.592-1.863-0.592-2.888 0-4.08 3.32-7.399 7.4-7.399 0.672 0 1.32 0.098 1.941 0.267l0.004-0.021c0.439 0.129 0.893 0.22 1.371 0.22 0.273 0 0.537-0.034 0.799-0.078-2.189-2.621-5.008-4.698-8.219-5.999l-5.283 8.17-2.1 3.248-2.1-3.248-5.443-8.418c-0.678 0.249-1.341 0.528-1.984 0.842-0.034 1.701-0.828 3.217-2.059 4.221l0.005 0.006c-0.685 0.568-1.13 1.414-1.13 2.371C27.705 39.861 29.093 41.25 30.799 41.25z" fill="#ffffff" data-fill-palette-color="accent"></path><path d="M59.869 56.378c-0.648 1.106-1.832 1.863-3.205 1.863-2.059 0-3.734-1.676-3.734-3.735 0-0.424 0.066-0.861 0.197-1.243l-0.006-0.002c0.184-0.519 0.303-1.069 0.303-1.65 0-1.269-0.439-2.43-1.223-3.31-0.672-0.788-1.092-1.795-1.092-2.909 0-2.487 2.023-4.512 4.51-4.512 1.922 0 3.562 1.208 4.211 2.903-0.547-1.65-1.303-3.206-2.223-4.647-0.75 0.257-1.553 0.404-2.389 0.404-0.703 0-1.381-0.104-2.025-0.288l-0.004 0.016c-0.412-0.113-0.84-0.193-1.287-0.193-2.701 0-4.9 2.197-4.9 4.899 0 0.667 0.137 1.304 0.379 1.884l-0.01 0.005c0.363 0.856 0.568 1.798 0.568 2.786 0 3.947-3.211 7.158-7.158 7.158-3.947 0-7.158-3.211-7.158-7.158 0-1.083 0.25-2.105 0.683-3.025l-0.014-0.008c0.076-0.184 0.119-0.384 0.119-0.595 0-0.866-0.705-1.571-1.572-1.571-0.162 0-0.314 0.031-0.462 0.076l-0.002-0.006c-0.5 0.148-1.028 0.23-1.576 0.23-3.085 0-5.595-2.51-5.595-5.596 0-1.697 0.763-3.217 1.961-4.244l-0.008-0.01c0.016-0.012 0.027-0.028 0.043-0.041-3.221 2.513-5.699 5.938-7.02 9.894 0.991 1.201 1.589 2.739 1.593 4.413h0.003c0 0.006-0.002 0.012-0.002 0.018 0 2.044 1.388 3.754 3.265 4.283l-0.004 0.014c5.353 1.659 9.249 6.654 9.249 12.543 0 1.805-0.377 3.52-1.041 5.086 2.123 0.728 4.39 1.142 6.756 1.142 9.532 0 17.577-6.42 20.081-15.158-0.082 0.093-0.156 0.188-0.205 0.288L59.869 56.378z" fill="#ffffff" data-fill-palette-color="accent"></path><path d="M40.416 37.775l8.17-12.636c1.293-1.715 2.07-3.84 2.07-6.149 0-5.647-4.594-10.241-10.241-10.241-5.646 0-10.24 4.594-10.24 10.241 0 2.309 0.776 4.434 2.07 6.148L40.416 37.775zM40.416 15.989c1.655 0 3 1.346 3 3.001s-1.346 3.001-3 3.001c-1.654 0-3-1.347-3-3.001S38.761 15.989 40.416 15.989z" fill="#ffffff" data-fill-palette-color="accent"></path></g></svg></g></svg></g><g></g></svg></g></svg></g></svg></g></svg></g></svg><rect width="320" height="360" fill="none" stroke="none" visibility="hidden"></rect></g></svg></g></svg>